HIERARCHY
ROOT hip
{
  OFFSET 0.0 0.0 0.0
  CHANNELS 6 Xposition Yposition Zposition Zrotation Yrotation Xrotation
  JOINT torso
  {
    OFFSET 0.0 0.0 0.0
    CHANNELS 3 Zrotation Xrotation Yrotation
    JOINT neck
    {
      OFFSET -31.42098999999993 328.8025209999999 74.3554680000002
      CHANNELS 3 Zrotation Xrotation Yrotation
      JOINT head
      {
        OFFSET 3.3519900000001144 303.81732099999994 206.53942900000015
        CHANNELS 3 Zrotation Xrotation Yrotation
        End Site
        {
          OFFSET 0.0 0.0 0.0
        }
      }
    }
    JOINT left_collar
    {
      OFFSET -31.42098999999993 328.8025209999999 74.3554680000002
      CHANNELS 3 Zrotation Xrotation Yrotation
      JOINT left_upper_arm
      {
        OFFSET -124.490479 -8.162841999999841 8.226441000000023
        CHANNELS 3 Zrotation Xrotation Yrotation
        JOINT left_forearm
        {
          OFFSET -253.595764 -1.5758060000000569 105.0729980000001
          CHANNELS 3 Zrotation Xrotation Yrotation
          JOINT left_hand
          {
            OFFSET -269.48803699999996 0.1478270000000066 -55.346191999999974
            CHANNELS 3 Zrotation Xrotation Yrotation
            End Site
            {
              OFFSET 0.0 0.0 0.0
            }
          }
        }
      }
    }
    JOINT right_collar
    {
      OFFSET -31.42098999999993 328.8025209999999 74.3554680000002
      CHANNELS 3 Zrotation Xrotation Yrotation
      JOINT right_upper_arm
      {
        OFFSET 162.02484099999998 0.46441600000002836 2.2303470000001653
        CHANNELS 3 Zrotation Xrotation Yrotation
        JOINT right_forearm
        {
          OFFSET 240.01246700000004 -25.835875999999985 121.34179699999959
          CHANNELS 3 Zrotation Xrotation Yrotation
          JOINT right_hand
          {
            OFFSET 252.48539699999992 18.910399999999868 -67.53466800000001
            CHANNELS 3 Zrotation Xrotation Yrotation
            End Site
            {
              OFFSET 0.0 0.0 0.0
            }
          }
        }
      }
    }
  }
}
MOTION
Frames: 9
Frame Time: 0.01
-510.3303107648966 277.4382043453084 565.4831865046665 5.874248261967664 -0.5912823213701348 5.539171706476347 -0.11191719573222353 1.4806556052713664 0.16583392552317214 -0.4869838081105277 -12.517314406098006 0.4868457356269356 0.0 0.0 0.0 0.6554008277413613 0.11604493011040516 -1.01868300745013 50.04599430905882 8.116671499887431 27.441138016340744 34.70540142569537 -4.242528005726932 -9.705511802334032 0.0 0.0 0.0 -0.5174090480726041 0.01539093792784253 5.005728463204127 -41.462832509700625 24.15079762970111 2.6724493322828136 14.821596883804578 -6.328437179058845 50.42120358807729 0.0 0.0 0.0
-511.37724911474464 277.55297847272675 564.8105647704954 5.910760718473698 -0.5577045385648086 6.058980510709073 -0.13683065624611584 1.4615224091598094 0.1693400800709979 -0.4361428128217572 -12.556347414621845 0.44993617073419073 0.0 0.0 0.0 0.6300363682452799 0.12222391015446521 -1.1322043496531853 50.05465488343613 8.098427645976285 27.482339338640816 34.713593588325466 -4.244723577107768 -9.701926631285781 0.0 0.0 0.0 -0.5530422395751816 0.017243794785502083 4.90584647165908 -41.41686011097115 24.157811396041787 2.7329566001745587 14.937231951972905 -6.34335794833504 50.38825653405724 0.0 0.0 0.0
-512.4044176299924 277.68838321597485 564.119826898221 5.9531350811258354 -0.5488726779181156 6.583509521717872 -0.1684289677801521 1.4702388601746879 0.17692236055310245 -0.3863017593219155 -12.59721707718899 0.4137662048947253 0.0 0.0 0.0 0.6032467121498963 0.12868072294712868 -1.251884825464246 50.0621768074582 8.079043430846461 27.525450193725042 34.72931294191719 -4.248322396044484 -9.69699575203588 0.0 0.0 0.0 -0.5889717686094917 0.0190363272254945 4.799584504386134 -41.37819816659833 24.163479040191525 2.7835129495164312 15.046921738762794 -6.358227208787014 50.36069088191349 0.0 0.0 0.0
-513.4129166911699 277.8463220663021 563.4090962404446 6.001050755184303 -0.5666212454105692 7.109942401512389 -0.20652297050908353 1.5094199815631688 0.18876368069561889 -0.3376018964454584 -12.640426008025832 0.3784445788247965 0.0 0.0 0.0 0.5756236160091438 0.13530696747189164 -1.3756602114228225 50.0679100153527 8.058486735598713 27.57028806502001 34.75237576634315 -4.253371939775195 -9.690499758193676 0.0 0.0 0.0 -0.6245610242354175 0.0207321640203704 4.68898595648166 -41.34711275218125 24.167593487376696 2.8234603284613566 15.149113985537943 -6.372821477344982 50.338737376550895 0.0 0.0 0.0
-514.4039997938941 278.02852004483645 562.6765237102553 6.053938044528582 -0.6120732343229298 7.635533044586901 -0.250715673395859 1.5809883371551106 0.20492586566469131 -0.29013403094440715 -12.686512406409152 0.34404306712766125 0.0 0.0 0.0 0.5477916102215703 0.14199381538558187 -1.501363419834618 50.071245679644235 8.036713942589186 27.616713206159297 34.78252163602875 -4.259900467590176 -9.68225128869594 0.0 0.0 0.0 -0.6591621826683999 0.02229957373839417 4.576167843222785 -41.323732639222285 24.1699044732552 2.8522193651023846 15.24214091316541 -6.3869024958851135 50.322660802138564 0.0 0.0 0.0
-515.3790143440307 278.23648005600444 561.9203815700021 6.110980213618036 -0.6855110646692574 8.157682158402531 -0.3003930261049829 1.6860168064870997 0.2253346432090001 -0.24394138532615145 -12.736034870046586 0.3105983745224804 0.0 0.0 0.0 0.5203923998102398 0.14863393770216657 -1.6267619421221033 50.07162885438183 8.01367838826186 27.66461597695863 34.81941434577435 -4.267917112581073 -9.672095156278944 0.0 0.0 0.0 -0.6921307403673279 0.023712318331229536 4.4632769467959035 -41.308043855739946 24.17012780386137 2.86931181587668 15.324252342901953 -6.400219440602428 50.31274469145909 0.0 0.0 0.0
-516.3393285211242 278.47143184774654 561.139163256582 6.1711220097108495 -0.7862534323343447 8.674018628660919 -0.3547216650066992 1.824573278228987 0.24976810774255362 -0.19902418601050556 -12.789553267475496 0.2781152812413578 0.0 0.0 0.0 0.49406724409885966 0.15512321653798275 -1.7496000847422124 50.06857103110118 7.989339812055309 27.7139019716092 34.86264443845719 -4.27741188827262 -9.659909191888548 0.0 0.0 0.0 -0.7228419732171577 0.024950189720014716 4.352443324453052 -41.299886702670854 24.1679557162527 2.874381794373484 15.393657242337957 -6.41251208419159 50.30927427406257 0.0 0.0 0.0
-517.2862444523578 278.7342728498289 560.3316883508468 6.233084352366158 -0.9125425855540426 9.182483881183808 -0.4126539030697643 1.9955720121993612 0.277849134438002 -0.15534569479768648 -12.847605491713917 0.2465708280963166 0.0 0.0 0.0 0.4694374144224468 0.16136222406064404 -1.867646169056912 50.0616628520814 7.963674453382357 27.76447573514396 34.91173274511156 -4.288355392250503 -9.645606247966171 0.0 0.0 0.0 -0.7507091525932055 0.025999218186272034 4.2457315374923015 -41.29895565149324 24.163068669256443 2.867215791095866 15.44857299203508 -6.423514906664982 50.31251802119531 0.0 0.0 0.0
-518.2208984899966 279.0255006519481 559.4972116511999 6.29538470783518 -1.0614468627646318 9.681416777453498 -0.4729397767825843 2.196637012365641 0.3090419367206833 -0.11283940484639204 -12.910680121363125 0.2159193402839438 0.0 0.0 0.0 0.447082956404 0.167257471554287 -1.9787445098084342 50.05058722768063 7.936685431052101 27.816223887183714 34.966134290243254 -4.3006980012683025 -9.629137738081324 0.0 0.0 0.0 -0.7752031579100974 0.02685156800762926 4.145090208457672 -41.30480258280191 24.155148889683367 2.847761489015869 15.487281244205306 -6.432962132246944 50.3227082597487 0.0 0.0 0.0
